<mxfile host="app.diagrams.net" modified="2024-07-16T04:23:58.829Z" agent="Mozilla/5.0 (Windows NT 10.0; Win64; x64) AppleWebKit/537.36 (KHTML, like Gecko) Chrome/126.0.0.0 Safari/537.36" etag="WaEyLPDY4V-kRLPCl6r3" version="24.6.5" type="github" pages="2">
  <diagram name="Estrutura" id="_JozszdOQ5H9nEkMJRZu">
    <mxGraphModel dx="1120" dy="468" grid="1" gridSize="10" guides="1" tooltips="1" connect="1" arrows="1" fold="1" page="1" pageScale="1" pageWidth="827" pageHeight="1169" math="0" shadow="0">
      <root>
        <mxCell id="0" />
        <mxCell id="1" parent="0" />
        <mxCell id="03ZlNTiPjZ4IK-vgwYox-1" value="Layout" style="rounded=1;whiteSpace=wrap;html=1;" vertex="1" parent="1">
          <mxGeometry x="15" y="75" width="130" height="70" as="geometry" />
        </mxCell>
        <mxCell id="03ZlNTiPjZ4IK-vgwYox-2" value="" style="endArrow=classic;html=1;rounded=0;exitX=1;exitY=0.5;exitDx=0;exitDy=0;entryX=0;entryY=0.5;entryDx=0;entryDy=0;" edge="1" parent="1" source="03ZlNTiPjZ4IK-vgwYox-1" target="03ZlNTiPjZ4IK-vgwYox-3">
          <mxGeometry width="50" height="50" relative="1" as="geometry">
            <mxPoint x="240" y="120" as="sourcePoint" />
            <mxPoint x="220" y="60" as="targetPoint" />
          </mxGeometry>
        </mxCell>
        <mxCell id="03ZlNTiPjZ4IK-vgwYox-3" value="https://themewagon.github.io/feane/" style="rounded=1;whiteSpace=wrap;html=1;fillColor=#00FF00;" vertex="1" parent="1">
          <mxGeometry x="250" y="10" width="260" height="60" as="geometry" />
        </mxCell>
        <mxCell id="03ZlNTiPjZ4IK-vgwYox-4" value="" style="endArrow=classic;html=1;rounded=0;exitX=1;exitY=0.5;exitDx=0;exitDy=0;entryX=0;entryY=0.5;entryDx=0;entryDy=0;" edge="1" parent="1" source="03ZlNTiPjZ4IK-vgwYox-1" target="03ZlNTiPjZ4IK-vgwYox-6">
          <mxGeometry width="50" height="50" relative="1" as="geometry">
            <mxPoint x="170" y="100" as="sourcePoint" />
            <mxPoint x="220" y="90" as="targetPoint" />
          </mxGeometry>
        </mxCell>
        <mxCell id="03ZlNTiPjZ4IK-vgwYox-5" value="" style="endArrow=classic;html=1;rounded=0;exitX=1;exitY=0.5;exitDx=0;exitDy=0;entryX=0;entryY=0.5;entryDx=0;entryDy=0;" edge="1" parent="1" source="03ZlNTiPjZ4IK-vgwYox-1" target="03ZlNTiPjZ4IK-vgwYox-7">
          <mxGeometry width="50" height="50" relative="1" as="geometry">
            <mxPoint x="180" y="110" as="sourcePoint" />
            <mxPoint x="200" y="110" as="targetPoint" />
          </mxGeometry>
        </mxCell>
        <UserObject label="https://themewagon.github.io/tasty-recipes/" link="https://themewagon.github.io/tasty-recipes/" id="03ZlNTiPjZ4IK-vgwYox-6">
          <mxCell style="rounded=1;whiteSpace=wrap;html=1;fillColor=#FF3333;" vertex="1" parent="1">
            <mxGeometry x="250" y="80" width="260" height="60" as="geometry" />
          </mxCell>
        </UserObject>
        <mxCell id="03ZlNTiPjZ4IK-vgwYox-7" value="https://bootstrapmade.com/demo/Restaurantly/" style="rounded=1;whiteSpace=wrap;html=1;fillColor=#FF3333;" vertex="1" parent="1">
          <mxGeometry x="250" y="150" width="260" height="60" as="geometry" />
        </mxCell>
        <mxCell id="03ZlNTiPjZ4IK-vgwYox-8" value="Front-End" style="rounded=1;whiteSpace=wrap;html=1;" vertex="1" parent="1">
          <mxGeometry x="15" y="358.75" width="150" height="72.5" as="geometry" />
        </mxCell>
        <mxCell id="03ZlNTiPjZ4IK-vgwYox-9" value="Back-End" style="rounded=1;whiteSpace=wrap;html=1;" vertex="1" parent="1">
          <mxGeometry x="20" y="726.88" width="140" height="80" as="geometry" />
        </mxCell>
        <mxCell id="03ZlNTiPjZ4IK-vgwYox-11" value="" style="endArrow=classic;html=1;rounded=0;exitX=1;exitY=0.5;exitDx=0;exitDy=0;entryX=0;entryY=0.5;entryDx=0;entryDy=0;" edge="1" parent="1" source="03ZlNTiPjZ4IK-vgwYox-8" target="03ZlNTiPjZ4IK-vgwYox-12">
          <mxGeometry width="50" height="50" relative="1" as="geometry">
            <mxPoint x="200" y="360" as="sourcePoint" />
            <mxPoint x="220" y="350" as="targetPoint" />
          </mxGeometry>
        </mxCell>
        <mxCell id="03ZlNTiPjZ4IK-vgwYox-12" value="" style="whiteSpace=wrap;html=1;aspect=fixed;" vertex="1" parent="1">
          <mxGeometry x="220" y="240" width="310" height="310" as="geometry" />
        </mxCell>
        <mxCell id="03ZlNTiPjZ4IK-vgwYox-13" value="HTML" style="rounded=1;whiteSpace=wrap;html=1;" vertex="1" parent="1">
          <mxGeometry x="235" y="250" width="285" height="40" as="geometry" />
        </mxCell>
        <mxCell id="03ZlNTiPjZ4IK-vgwYox-14" value="CSS" style="rounded=1;whiteSpace=wrap;html=1;" vertex="1" parent="1">
          <mxGeometry x="235" y="300" width="285" height="40" as="geometry" />
        </mxCell>
        <mxCell id="03ZlNTiPjZ4IK-vgwYox-17" value="Vuejs" style="rounded=1;whiteSpace=wrap;html=1;" vertex="1" parent="1">
          <mxGeometry x="235" y="450" width="285" height="40" as="geometry" />
        </mxCell>
        <mxCell id="03ZlNTiPjZ4IK-vgwYox-18" value="NuxtJs" style="rounded=1;whiteSpace=wrap;html=1;" vertex="1" parent="1">
          <mxGeometry x="235" y="500" width="285" height="40" as="geometry" />
        </mxCell>
        <mxCell id="03ZlNTiPjZ4IK-vgwYox-19" value="Bootstrap" style="rounded=1;whiteSpace=wrap;html=1;" vertex="1" parent="1">
          <mxGeometry x="235" y="400" width="285" height="40" as="geometry" />
        </mxCell>
        <mxCell id="03ZlNTiPjZ4IK-vgwYox-15" value="Javacript" style="rounded=1;whiteSpace=wrap;html=1;" vertex="1" parent="1">
          <mxGeometry x="235" y="350" width="285" height="40" as="geometry" />
        </mxCell>
        <mxCell id="03ZlNTiPjZ4IK-vgwYox-20" value="" style="endArrow=classic;html=1;rounded=0;exitX=1;exitY=0.5;exitDx=0;exitDy=0;entryX=0;entryY=0.5;entryDx=0;entryDy=0;" edge="1" parent="1" source="03ZlNTiPjZ4IK-vgwYox-9" target="03ZlNTiPjZ4IK-vgwYox-22">
          <mxGeometry width="50" height="50" relative="1" as="geometry">
            <mxPoint x="175" y="405" as="sourcePoint" />
            <mxPoint x="210" y="740" as="targetPoint" />
          </mxGeometry>
        </mxCell>
        <mxCell id="03ZlNTiPjZ4IK-vgwYox-22" value="" style="whiteSpace=wrap;html=1;aspect=fixed;" vertex="1" parent="1">
          <mxGeometry x="236.88" y="590" width="230" height="230" as="geometry" />
        </mxCell>
        <mxCell id="03ZlNTiPjZ4IK-vgwYox-23" value="Django 4,2 (Administration)" style="rounded=1;whiteSpace=wrap;html=1;" vertex="1" parent="1">
          <mxGeometry x="290" y="600" width="120" height="60" as="geometry" />
        </mxCell>
        <mxCell id="03ZlNTiPjZ4IK-vgwYox-24" value="VueJs" style="rounded=1;whiteSpace=wrap;html=1;fillColor=#FFB366;" vertex="1" parent="1">
          <mxGeometry x="290" y="670" width="120" height="60" as="geometry" />
        </mxCell>
        <mxCell id="03ZlNTiPjZ4IK-vgwYox-25" value="NuxtJs" style="rounded=1;whiteSpace=wrap;html=1;" vertex="1" parent="1">
          <mxGeometry x="290" y="746.88" width="120" height="60" as="geometry" />
        </mxCell>
        <mxCell id="03ZlNTiPjZ4IK-vgwYox-26" value="Banco&amp;nbsp;" style="rounded=1;whiteSpace=wrap;html=1;" vertex="1" parent="1">
          <mxGeometry x="22.5" y="920" width="135" height="80" as="geometry" />
        </mxCell>
        <mxCell id="03ZlNTiPjZ4IK-vgwYox-27" style="edgeStyle=orthogonalEdgeStyle;rounded=0;orthogonalLoop=1;jettySize=auto;html=1;exitX=0.5;exitY=1;exitDx=0;exitDy=0;" edge="1" parent="1" source="03ZlNTiPjZ4IK-vgwYox-25" target="03ZlNTiPjZ4IK-vgwYox-25">
          <mxGeometry relative="1" as="geometry" />
        </mxCell>
        <mxCell id="03ZlNTiPjZ4IK-vgwYox-28" value="" style="endArrow=classic;startArrow=classic;html=1;rounded=0;exitX=0.5;exitY=0;exitDx=0;exitDy=0;entryX=0.5;entryY=1;entryDx=0;entryDy=0;" edge="1" parent="1" source="03ZlNTiPjZ4IK-vgwYox-26" target="03ZlNTiPjZ4IK-vgwYox-9">
          <mxGeometry width="50" height="50" relative="1" as="geometry">
            <mxPoint x="390" y="900" as="sourcePoint" />
            <mxPoint x="440" y="850" as="targetPoint" />
          </mxGeometry>
        </mxCell>
        <mxCell id="03ZlNTiPjZ4IK-vgwYox-29" value="" style="endArrow=classic;html=1;rounded=0;exitX=1;exitY=0.5;exitDx=0;exitDy=0;entryX=0;entryY=0.5;entryDx=0;entryDy=0;" edge="1" parent="1" source="03ZlNTiPjZ4IK-vgwYox-26" target="03ZlNTiPjZ4IK-vgwYox-31">
          <mxGeometry width="50" height="50" relative="1" as="geometry">
            <mxPoint x="240" y="990" as="sourcePoint" />
            <mxPoint x="230" y="960" as="targetPoint" />
          </mxGeometry>
        </mxCell>
        <mxCell id="03ZlNTiPjZ4IK-vgwYox-31" value="Maria DB" style="rounded=1;whiteSpace=wrap;html=1;" vertex="1" parent="1">
          <mxGeometry x="290" y="920" width="123.12" height="80" as="geometry" />
        </mxCell>
      </root>
    </mxGraphModel>
  </diagram>
  <diagram id="8fLBs4eSWqiu9tgPdFYU" name="Site">
    <mxGraphModel dx="1120" dy="468" grid="1" gridSize="10" guides="1" tooltips="1" connect="1" arrows="1" fold="1" page="1" pageScale="1" pageWidth="827" pageHeight="1169" math="0" shadow="0">
      <root>
        <mxCell id="0" />
        <mxCell id="1" parent="0" />
        <mxCell id="jWfAnXKjfgSkeG5d787E-1" value="Menu" style="rounded=1;whiteSpace=wrap;html=1;" vertex="1" parent="1">
          <mxGeometry x="50" y="60" width="120" height="60" as="geometry" />
        </mxCell>
        <mxCell id="KEtiw-v-da3Bz3zdPKc1-1" value="" style="endArrow=classic;html=1;rounded=0;exitX=1;exitY=0.5;exitDx=0;exitDy=0;entryX=-0.036;entryY=0.267;entryDx=0;entryDy=0;entryPerimeter=0;" edge="1" parent="1" source="jWfAnXKjfgSkeG5d787E-1" target="KEtiw-v-da3Bz3zdPKc1-4">
          <mxGeometry width="50" height="50" relative="1" as="geometry">
            <mxPoint x="270" y="140" as="sourcePoint" />
            <mxPoint x="220" y="90" as="targetPoint" />
          </mxGeometry>
        </mxCell>
        <mxCell id="KEtiw-v-da3Bz3zdPKc1-3" value="List" style="swimlane;fontStyle=0;childLayout=stackLayout;horizontal=1;startSize=30;horizontalStack=0;resizeParent=1;resizeParentMax=0;resizeLast=0;collapsible=1;marginBottom=0;whiteSpace=wrap;html=1;" vertex="1" parent="1">
          <mxGeometry x="220" y="20" width="140" height="110" as="geometry" />
        </mxCell>
        <mxCell id="KEtiw-v-da3Bz3zdPKc1-5" value="Início" style="text;strokeColor=none;fillColor=none;align=left;verticalAlign=middle;spacingLeft=4;spacingRight=4;overflow=hidden;points=[[0,0.5],[1,0.5]];portConstraint=eastwest;rotatable=0;whiteSpace=wrap;html=1;" vertex="1" parent="KEtiw-v-da3Bz3zdPKc1-3">
          <mxGeometry y="30" width="140" height="30" as="geometry" />
        </mxCell>
        <mxCell id="KEtiw-v-da3Bz3zdPKc1-4" value="Receitas" style="text;strokeColor=none;fillColor=none;align=left;verticalAlign=middle;spacingLeft=4;spacingRight=4;overflow=hidden;points=[[0,0.5],[1,0.5]];portConstraint=eastwest;rotatable=0;whiteSpace=wrap;html=1;" vertex="1" parent="KEtiw-v-da3Bz3zdPKc1-3">
          <mxGeometry y="60" width="140" height="30" as="geometry" />
        </mxCell>
        <mxCell id="KEtiw-v-da3Bz3zdPKc1-6" value="Sobre" style="text;strokeColor=none;fillColor=none;align=left;verticalAlign=middle;spacingLeft=4;spacingRight=4;overflow=hidden;points=[[0,0.5],[1,0.5]];portConstraint=eastwest;rotatable=0;whiteSpace=wrap;html=1;" vertex="1" parent="KEtiw-v-da3Bz3zdPKc1-3">
          <mxGeometry y="90" width="140" height="20" as="geometry" />
        </mxCell>
        <mxCell id="KEtiw-v-da3Bz3zdPKc1-7" value="Fale Conosco" style="text;strokeColor=none;fillColor=none;align=left;verticalAlign=middle;spacingLeft=4;spacingRight=4;overflow=hidden;points=[[0,0.5],[1,0.5]];portConstraint=eastwest;rotatable=0;whiteSpace=wrap;html=1;" vertex="1" parent="1">
          <mxGeometry x="220" y="130" width="140" height="30" as="geometry" />
        </mxCell>
        <mxCell id="KEtiw-v-da3Bz3zdPKc1-8" value="Slide" style="rounded=1;whiteSpace=wrap;html=1;" vertex="1" parent="1">
          <mxGeometry x="20" y="370" width="120" height="60" as="geometry" />
        </mxCell>
        <mxCell id="KEtiw-v-da3Bz3zdPKc1-9" value="" style="endArrow=classic;html=1;rounded=0;exitX=1;exitY=0.5;exitDx=0;exitDy=0;entryX=0;entryY=0.5;entryDx=0;entryDy=0;" edge="1" parent="1" source="KEtiw-v-da3Bz3zdPKc1-8" target="KEtiw-v-da3Bz3zdPKc1-10">
          <mxGeometry width="50" height="50" relative="1" as="geometry">
            <mxPoint x="230" y="280" as="sourcePoint" />
            <mxPoint x="220" y="260" as="targetPoint" />
          </mxGeometry>
        </mxCell>
        <mxCell id="KEtiw-v-da3Bz3zdPKc1-10" value="3 Slides dinâmicos" style="rounded=1;whiteSpace=wrap;html=1;" vertex="1" parent="1">
          <mxGeometry x="230" y="300" width="120" height="60" as="geometry" />
        </mxCell>
        <mxCell id="KEtiw-v-da3Bz3zdPKc1-12" value="Título da Receita" style="rounded=1;whiteSpace=wrap;html=1;" vertex="1" parent="1">
          <mxGeometry x="230" y="370" width="120" height="60" as="geometry" />
        </mxCell>
        <mxCell id="KEtiw-v-da3Bz3zdPKc1-13" value="Imagem" style="rounded=1;whiteSpace=wrap;html=1;" vertex="1" parent="1">
          <mxGeometry x="230" y="230" width="120" height="60" as="geometry" />
        </mxCell>
        <mxCell id="KEtiw-v-da3Bz3zdPKc1-14" value="Breve descrição da Receita" style="rounded=1;whiteSpace=wrap;html=1;" vertex="1" parent="1">
          <mxGeometry x="230" y="440" width="120" height="60" as="geometry" />
        </mxCell>
        <mxCell id="KEtiw-v-da3Bz3zdPKc1-15" value="Botão para Ver mais" style="rounded=1;whiteSpace=wrap;html=1;" vertex="1" parent="1">
          <mxGeometry x="230" y="510" width="120" height="60" as="geometry" />
        </mxCell>
        <mxCell id="KEtiw-v-da3Bz3zdPKc1-16" value="" style="endArrow=classic;html=1;rounded=0;exitX=1;exitY=0.5;exitDx=0;exitDy=0;entryX=0;entryY=0.5;entryDx=0;entryDy=0;" edge="1" parent="1" source="KEtiw-v-da3Bz3zdPKc1-8" target="KEtiw-v-da3Bz3zdPKc1-12">
          <mxGeometry width="50" height="50" relative="1" as="geometry">
            <mxPoint x="140" y="510" as="sourcePoint" />
            <mxPoint x="190" y="460" as="targetPoint" />
          </mxGeometry>
        </mxCell>
        <mxCell id="KEtiw-v-da3Bz3zdPKc1-17" value="" style="endArrow=classic;html=1;rounded=0;exitX=1;exitY=0.5;exitDx=0;exitDy=0;entryX=0;entryY=0.5;entryDx=0;entryDy=0;" edge="1" parent="1" source="KEtiw-v-da3Bz3zdPKc1-8" target="KEtiw-v-da3Bz3zdPKc1-14">
          <mxGeometry width="50" height="50" relative="1" as="geometry">
            <mxPoint x="390" y="400" as="sourcePoint" />
            <mxPoint x="440" y="350" as="targetPoint" />
          </mxGeometry>
        </mxCell>
        <mxCell id="KEtiw-v-da3Bz3zdPKc1-18" value="" style="endArrow=classic;html=1;rounded=0;exitX=1;exitY=0.5;exitDx=0;exitDy=0;entryX=0;entryY=0.5;entryDx=0;entryDy=0;" edge="1" parent="1" source="KEtiw-v-da3Bz3zdPKc1-8" target="KEtiw-v-da3Bz3zdPKc1-15">
          <mxGeometry width="50" height="50" relative="1" as="geometry">
            <mxPoint x="400" y="410" as="sourcePoint" />
            <mxPoint x="450" y="360" as="targetPoint" />
          </mxGeometry>
        </mxCell>
        <mxCell id="KEtiw-v-da3Bz3zdPKc1-19" value="" style="endArrow=classic;html=1;rounded=0;exitX=1;exitY=0.5;exitDx=0;exitDy=0;entryX=0;entryY=0.5;entryDx=0;entryDy=0;" edge="1" parent="1" source="KEtiw-v-da3Bz3zdPKc1-8" target="KEtiw-v-da3Bz3zdPKc1-13">
          <mxGeometry width="50" height="50" relative="1" as="geometry">
            <mxPoint x="410" y="420" as="sourcePoint" />
            <mxPoint x="460" y="370" as="targetPoint" />
          </mxGeometry>
        </mxCell>
        <mxCell id="KEtiw-v-da3Bz3zdPKc1-20" value="" style="endArrow=classic;html=1;rounded=0;" edge="1" parent="1">
          <mxGeometry width="50" height="50" relative="1" as="geometry">
            <mxPoint x="420" y="430" as="sourcePoint" />
            <mxPoint x="470" y="380" as="targetPoint" />
          </mxGeometry>
        </mxCell>
        <mxCell id="KEtiw-v-da3Bz3zdPKc1-21" value="Nome: Receitas Fit" style="rounded=1;whiteSpace=wrap;html=1;" vertex="1" parent="1">
          <mxGeometry x="450" y="20" width="150" height="65" as="geometry" />
        </mxCell>
      </root>
    </mxGraphModel>
  </diagram>
</mxfile>
